<?xml version="1.0" encoding="utf-8"?>
<!-- Generator: Adobe Illustrator 26.3.1, SVG Export Plug-In . SVG Version: 6.00 Build 0)  -->
<svg version="1.1" id="Слой_1" xmlns="http://www.w3.org/2000/svg" xmlns:xlink="http://www.w3.org/1999/xlink" x="0px" y="0px"
	 viewBox="0 0 566.9 425.2" style="enable-background:new 0 0 566.9 425.2;" xml:space="preserve">
<style type="text/css">
	.st0{fill:#00A24C;}
</style>
<g>
	<g>
		<path class="st0" d="M48,321.9v-56.5c4.5-0.8,10.2-1.2,16.8-1.2c7.6,0,13.3,1.1,17.1,3.2c4.6,2.4,6.8,6.2,6.8,11.3
			c0,2.6-0.8,5-2.4,7.2c-1.6,2.2-4,3.8-7.1,5v0.2c3.4,0.9,6.2,2.6,8.3,5c2.1,2.4,3.2,5.5,3.2,9c0,4.9-2,9-6,12.3
			c-4.4,3.5-11.9,5.2-22.6,5.2C56.5,322.8,51.8,322.5,48,321.9z M60.9,274v13.4h4.3c3.4,0,6-0.6,7.8-1.9c1.8-1.3,2.7-3,2.7-5.2
			c0-4.4-3.1-6.7-9.2-6.7C64.1,273.7,62.2,273.8,60.9,274z M60.9,296.7v16.2c0.9,0.1,2.5,0.2,5,0.2c3.2,0,5.9-0.7,8-2
			c2.1-1.4,3.1-3.5,3.1-6.3c0-2.7-1.1-4.7-3.2-6.1c-2.2-1.3-5-2-8.4-2H60.9z"/>
		<path class="st0" d="M99.6,322.2v-57.5h13v46.6h22.9v10.9H99.6z"/>
		<path class="st0" d="M173.5,307.4H157l-4.1,14.8h-13.4l17.5-57.5h17.1l17.9,57.5h-14.1L173.5,307.4z M158.9,297.7h12.7l-3.6-12.2
			c-0.5-1.7-1.5-5.4-2.9-11.1h-0.2c-0.2,0.7-0.6,2.5-1.2,5.2c-0.6,2.7-1.1,4.7-1.4,5.9L158.9,297.7z"/>
		<path class="st0" d="M237.7,310.4l1.9,10.2c-3.4,1.6-8.3,2.5-14.7,2.5c-9.6,0-17-2.7-22.3-8c-5.2-5.3-7.8-12.3-7.8-20.8
			c0-9.5,3-17,8.9-22.4c5.9-5.4,13.4-8.1,22.5-8.1c6.4,0,11.1,0.9,14.2,2.6l-2.7,10.2c-3.3-1.4-6.9-2.1-10.9-2.1
			c-5.4,0-9.8,1.6-13.2,4.9c-3.4,3.3-5.1,8-5.1,14.1c0,5.8,1.6,10.4,4.9,13.7c3.2,3.4,7.7,5,13.5,5
			C231.1,312.3,234.8,311.6,237.7,310.4z"/>
		<path class="st0" d="M248.3,264.6h13v22.1h21.4v-22.1h13v57.5h-13v-24.1h-21.4v24.1h-13V264.6z"/>
		<path class="st0" d="M332.3,263.6c8.5,0,15.2,2.8,20,8.3c4.8,5.5,7.3,12.5,7.3,20.9c0,9.4-2.6,16.8-7.7,22.2
			c-5.1,5.4-12,8.1-20.5,8.1c-8.3,0-14.9-2.8-19.8-8.3c-4.9-5.5-7.3-12.6-7.3-21c0-8.7,2.6-15.9,7.7-21.6
			C317.2,266.5,324,263.6,332.3,263.6z M342.2,279.5c-2.4-3.7-5.8-5.5-10.2-5.5c-4.3,0-7.7,1.8-10.2,5.5s-3.8,8.3-3.8,14.1
			c0,5.7,1.3,10.4,3.8,14c2.5,3.6,5.9,5.3,10.2,5.3c4.3,0,7.6-1.8,10.1-5.5c2.5-3.6,3.7-8.3,3.7-14.1
			C345.9,287.8,344.7,283.2,342.2,279.5z"/>
		<path class="st0" d="M391.1,322.2h-14.2l-13.6-57.5h13.9l4.3,23.6c0.8,4.4,1.9,11.1,3.4,20.1h0.2c0.7-4.6,1.9-11.4,3.8-20.3
			l4.9-23.5h13.8l4.6,24.2c1.1,5.9,2.2,12.3,3.1,19.3h0.2c0.3-2.3,1.4-9,3.3-20.1l4.7-23.5h13.2l-14.8,57.5h-14.1l-4.9-24.7
			c-1.3-6.8-2.2-12.7-2.7-17.7h-0.2c-1.1,7.3-2.2,13.2-3.3,17.7L391.1,322.2z"/>
		<path class="st0" d="M468,263.6c8.5,0,15.2,2.8,20,8.3c4.8,5.5,7.3,12.5,7.3,20.9c0,9.4-2.6,16.8-7.7,22.2
			c-5.1,5.4-12,8.1-20.5,8.1c-8.3,0-14.9-2.8-19.8-8.3c-4.9-5.5-7.3-12.6-7.3-21c0-8.7,2.6-15.9,7.7-21.6
			C452.9,266.5,459.6,263.6,468,263.6z M477.9,279.5c-2.4-3.7-5.8-5.5-10.2-5.5s-7.7,1.8-10.2,5.5s-3.8,8.3-3.8,14.1
			c0,5.7,1.3,10.4,3.8,14c2.5,3.6,5.9,5.3,10.2,5.3c4.3,0,7.6-1.8,10.1-5.5c2.5-3.6,3.7-8.3,3.7-14.1
			C481.6,287.8,480.3,283.2,477.9,279.5z"/>
	</g>
	<g>
		<path class="st0" d="M201.2,348c0-3.3-0.1-5.9-0.2-8.3h4.1l0.2,4.4h0.1c1.9-3.1,4.9-4.9,9-4.9c6.1,0,10.8,5.2,10.8,12.9
			c0,9.1-5.6,13.6-11.5,13.6c-3.4,0-6.3-1.5-7.8-4h-0.1v13.8h-4.6V348z M205.7,354.8c0,0.7,0.1,1.3,0.2,1.9c0.8,3.2,3.6,5.4,6.9,5.4
			c4.9,0,7.7-4,7.7-9.8c0-5.1-2.7-9.4-7.6-9.4c-3.1,0-6.1,2.3-7,5.7c-0.2,0.6-0.3,1.3-0.3,1.9V354.8z"/>
		<path class="st0" d="M254,352.2c0,9.4-6.5,13.5-12.6,13.5c-6.9,0-12.2-5-12.2-13.1c0-8.5,5.6-13.5,12.6-13.5
			C249.1,339.1,254,344.4,254,352.2z M233.9,352.5c0,5.6,3.2,9.8,7.7,9.8c4.4,0,7.7-4.1,7.7-9.9c0-4.3-2.2-9.8-7.6-9.8
			C236.2,342.6,233.9,347.6,233.9,352.5z"/>
		<path class="st0" d="M259.2,360.4c1.4,0.9,3.8,1.8,6.1,1.8c3.4,0,4.9-1.7,4.9-3.8c0-2.2-1.3-3.4-4.7-4.7c-4.6-1.6-6.7-4.1-6.7-7.2
			c0-4.1,3.3-7.5,8.8-7.5c2.6,0,4.8,0.7,6.2,1.6l-1.2,3.4c-1-0.6-2.8-1.5-5.2-1.5c-2.7,0-4.3,1.6-4.3,3.5c0,2.1,1.5,3,4.8,4.3
			c4.4,1.7,6.7,3.9,6.7,7.7c0,4.5-3.5,7.6-9.5,7.6c-2.8,0-5.4-0.7-7.1-1.7L259.2,360.4z"/>
		<path class="st0" d="M286.2,332.4v7.3h6.6v3.5h-6.6v13.7c0,3.1,0.9,4.9,3.5,4.9c1.2,0,2.1-0.2,2.7-0.3l0.2,3.5
			c-0.9,0.4-2.3,0.6-4.1,0.6c-2.2,0-3.9-0.7-5-1.9c-1.3-1.4-1.8-3.6-1.8-6.6v-13.9h-3.9v-3.5h3.9v-6.1L286.2,332.4z"/>
		<path class="st0" d="M300.2,353.3c0.1,6.2,4.1,8.8,8.7,8.8c3.3,0,5.3-0.6,7-1.3l0.8,3.3c-1.6,0.7-4.4,1.6-8.5,1.6
			c-7.8,0-12.5-5.1-12.5-12.8c0-7.7,4.5-13.7,11.9-13.7c8.3,0,10.5,7.3,10.5,12c0,0.9-0.1,1.7-0.2,2.2H300.2z M313.8,349.9
			c0.1-2.9-1.2-7.5-6.4-7.5c-4.7,0-6.7,4.3-7.1,7.5H313.8z"/>
		<path class="st0" d="M324,347.6c0-3-0.1-5.6-0.2-7.9h4l0.2,5h0.2c1.2-3.4,3.9-5.6,7-5.6c0.5,0,0.9,0.1,1.3,0.2v4.4
			c-0.5-0.1-0.9-0.2-1.6-0.2c-3.3,0-5.6,2.5-6.2,5.9c-0.1,0.6-0.2,1.4-0.2,2.2v13.5H324V347.6z"/>
		<path class="st0" d="M340.5,360.4c1.4,0.9,3.8,1.8,6.1,1.8c3.4,0,4.9-1.7,4.9-3.8c0-2.2-1.3-3.4-4.7-4.7c-4.6-1.6-6.7-4.1-6.7-7.2
			c0-4.1,3.3-7.5,8.8-7.5c2.6,0,4.8,0.7,6.2,1.6l-1.2,3.4c-1-0.6-2.8-1.5-5.2-1.5c-2.7,0-4.3,1.6-4.3,3.5c0,2.1,1.5,3,4.8,4.3
			c4.4,1.7,6.7,3.9,6.7,7.7c0,4.5-3.5,7.6-9.5,7.6c-2.8,0-5.4-0.7-7.1-1.7L340.5,360.4z"/>
	</g>
	<g>
		<g>
			<g>
				<path class="st0" d="M465.6,240.9C465.6,240.9,465.6,240.9,465.6,240.9C465.6,240.9,465.5,240.9,465.6,240.9L465.6,240.9z"/>
			</g>
			<g>
				<g>
					<path class="st0" d="M502.9,146.8c-8.2,0-18.2,3.2-29.2,11.3c-3,2.2-5.7,4.2-8.1,5.9c0-5.8,0-12,0-18.5
						c0-49.8-42-92.8-93.5-92.8c-31.7,0-67.1,16.3-98.5,57.5c-2,2.6-4.1,5.2-6.2,7.8c-1.5-2.1-3.1-4.5-4.8-7.1
						c-10.7-15.8-22.9-22-32.5-22c-11.8,0-19.8,9.4-16.1,22c3.1,10.5,9.4,28.6,15.4,44.9c-71.3,59.8-160.4,85-160.4,85h396.6
						c0,0,0,0,0.1-0.1c1.5-1.8,40.2-47.6,53.9-66.5C528.9,161.3,520.2,146.8,502.9,146.8z M240.1,165c1.9-1.6,3.7-3.2,5.6-4.9
						c-0.8-2.3-1.7-4.6-2.6-7c-0.8-2.3-1.7-4.7-2.6-7.1c-5.3-14.7-10.6-29.8-13.2-39c-0.5-1.8-0.4-3-0.1-3.4
						c0.3-0.4,1.3-0.8,2.8-0.8c4.9,0,13.1,4.2,21,15.9c2.6,3.9,4.9,7.2,6.9,10c1.5,2.2,2.9,4.1,4,5.8c0.5,0.7,1,1.4,1.5,2.1
						c0.9,1.3,1.9,2.4,2.8,3.5c1.5-1.7,3.1-3.4,4.6-5c1.6-1.8,3.2-3.6,4.7-5.4c3.1-3.6,6.2-7.4,9.1-11.2c32.8-43,65.7-52,87.4-52
						c43.2,0,79.6,36.2,79.6,79v28.4c0,3.8,0.1,7.6,0.1,11.4c2.3-0.3,4.5-0.5,6.8-0.8c1.5-0.4,3.3-1,5.2-2.2
						c0.6-0.4,1.2-0.8,1.7-1.2c4-2.9,9.3-6.7,16.3-11.9c10.2-7.5,17.5-8.6,21-8.6h0h0c3.9,0,6,1.3,6.5,2.2c0.3,0.6-0.1,2-1.2,3.4
						c-7.8,10.8-24.3,31-36.9,46.2c-4.2,4.9-8.3,9.8-12.5,14.7c-2.4,0-4.7-0.1-7.1-0.1H142.5c28.3-13.5,61.4-32.3,92-57.3
						C236.3,168.2,238.2,166.6,240.1,165z"/>
				</g>
				<g>
					<line class="st0" x1="502.9" y1="160.7" x2="502.9" y2="160.7"/>
				</g>
			</g>
		</g>
		<g>
			<path class="st0" d="M371,140.5c4.7,0,8.8,4,8.8,8.8v7.3c0,4.7-4,8.8-8.8,8.8c-4.7,0-8.8-4-8.8-8.8v-7.3
				C362.2,144.6,366.2,140.5,371,140.5 M371,126.7L371,126.7c-12.5,0-22.6,10.2-22.6,22.6v7.3c0,12.5,10.2,22.6,22.6,22.6h0
				c12.5,0,22.6-10.2,22.6-22.6v-7.3C393.6,136.8,383.4,126.7,371,126.7L371,126.7z"/>
		</g>
		<g>
			<path class="st0" d="M344.1,138.7h-13.9v-4c0-2.9-2.6-5.4-5.7-5.4c-3.1,0-5.7,2.5-5.7,5.4v4h-13.9v-4c0-10.6,8.8-19.3,19.6-19.3
				c10.8,0,19.6,8.6,19.6,19.3V138.7z"/>
		</g>
		<g>
			<path class="st0" d="M435.6,138.7h-13.9v-4c0-2.9-2.6-5.4-5.7-5.4s-5.7,2.5-5.7,5.4v4h-13.9v-4c0-10.6,8.8-19.3,19.6-19.3
				s19.6,8.6,19.6,19.3V138.7z"/>
		</g>
	</g>
</g>
</svg>
