<svg width="18.000000" height="20.000000" viewBox="0 0 18 20" fill="currentColor" xmlns="http://www.w3.org/2000/svg">
	<path id="Combined-Shape"
		d="M9 0C11.68 0 13.88 2.1 14 4.77L13.97 4.77C13.97 4.85 13.96 4.92 13.92 5L14.08 5C15.3 5 16.57 5.84 17.08 7.87L17.14 8.12L17.91 14.31C18.46 18.26 16.3 19.92 13.35 19.99L13.15 20L4.86 20C1.87 20 -0.44 18.9 0.07 14.58L0.1 14.31L0.88 8.12C1.26 5.92 2.55 5.06 3.79 5L3.93 5L4 5C3.99 4.92 3.99 4.84 4 4.77C4.12 2.1 6.32 0 9 0ZM6.09 8.32C5.6 8.32 5.21 8.73 5.21 9.23C5.21 9.74 5.6 10.14 6.09 10.14C6.58 10.14 6.98 9.74 6.98 9.23L6.97 9.12C6.91 8.67 6.54 8.32 6.09 8.32ZM11.88 8.32C11.39 8.32 11 8.73 11 9.23C11 9.74 11.39 10.14 11.88 10.14C12.37 10.14 12.76 9.74 12.76 9.23C12.76 8.73 12.37 8.32 11.88 8.32ZM8.96 1.3C7.04 1.3 5.48 2.85 5.48 4.77C5.49 4.84 5.49 4.92 5.48 5L12.49 5C12.46 4.92 12.45 4.85 12.44 4.77C12.44 2.85 10.89 1.3 8.96 1.3Z"
		fill="currentColor" fill-opacity="1.000000" fill-rule="nonzero" />
</svg>