<svg width="20.000000" height="20.000000" viewBox="0 0 20 20" fill="currentColor" xmlns="http://www.w3.org/2000/svg"
  xmlns:xlink="http://www.w3.org/1999/xlink">
  <path id="Vector"
    d="M9.6 10C8.22 10 7.04 9.51 6.07 8.53C5.09 7.55 4.6 6.37 4.6 5C4.6 3.62 5.09 2.44 6.07 1.46C7.04 0.48 8.22 0 9.6 0C10.97 0 12.15 0.48 13.13 1.46C14.11 2.44 14.6 3.62 14.6 5C14.6 6.37 14.11 7.55 13.13 8.53C12.15 9.51 10.97 10 9.6 10ZM-0.4 20L-0.4 16.5C-0.4 15.79 -0.22 15.14 0.14 14.54C0.51 13.95 0.99 13.49 1.6 13.18C2.89 12.54 4.2 12.05 5.53 11.73C6.87 11.41 8.22 11.24 9.6 11.25C10.97 11.25 12.33 11.41 13.66 11.73C14.99 12.05 16.31 12.54 17.6 13.18C18.2 13.5 18.68 13.95 19.05 14.54C19.41 15.14 19.6 15.79 19.6 16.5L19.6 20L-0.4 20Z" />
</svg>
